<?xml version="1.0" standalone="no"?>
<!DOCTYPE svg PUBLIC "-//W3C//DTD SVG 20010904//EN"
 "http://www.w3.org/TR/2001/REC-SVG-20010904/DTD/svg10.dtd">
<svg version="1.0" xmlns="http://www.w3.org/2000/svg"
 width="512.000000pt" height="512.000000pt" viewBox="0 0 512.000000 512.000000"
 preserveAspectRatio="xMidYMid meet">

<g transform="translate(0.000000,512.000000) scale(0.100000,-0.100000)"
fill="#000000" stroke="none">
<path d="M1200 4799 c-287 -20 -603 -161 -800 -359 -359 -358 -493 -1034 -329
-1649 115 -433 344 -746 667 -914 419 -218 845 -206 1075 29 94 96 163 241
174 365 5 52 3 60 -21 84 -30 30 -10 30 -225 5 -57 -7 -132 -10 -166 -8 l-63
4 -4 -71 c-4 -79 -32 -147 -80 -195 -39 -40 -80 -40 -119 -1 -36 37 -37 65 -2
116 17 26 28 57 31 90 6 69 -12 87 -115 115 -45 12 -95 31 -112 41 -58 35 -49
125 16 150 19 7 43 3 102 -15 174 -55 340 -74 498 -56 137 15 214 35 237 63
27 33 17 107 -39 267 -43 125 -79 269 -70 279 7 6 70 -45 126 -102 108 -109
185 -244 230 -402 l23 -80 6 -1096 c5 -1181 2 -1118 58 -1136 37 -13 72 -2 93
27 17 24 18 85 20 1100 1 1039 1 1078 -19 1165 -47 214 -139 389 -282 534 -95
98 -181 162 -287 216 -67 34 -74 36 -115 25 -231 -60 -413 -202 -521 -408 -44
-83 -72 -107 -116 -97 -35 7 -71 48 -71 79 0 11 14 50 30 85 17 35 29 65 28
66 -2 1 -24 12 -50 24 -25 12 -66 40 -91 61 -44 39 -47 40 -119 40 -112 0
-217 40 -277 104 -35 38 -34 91 3 122 38 33 71 30 132 -12 35 -24 68 -38 98
-41 l46 -6 0 77 c0 68 3 80 25 101 30 31 83 33 116 6 20 -16 24 -31 29 -97 10
-128 53 -189 151 -215 l46 -12 83 71 c67 57 211 151 253 165 5 1 -10 21 -31
44 -47 49 -92 136 -99 191 -7 53 28 96 80 96 46 0 72 -24 92 -84 25 -76 68
-111 190 -159 59 -22 112 -41 119 -41 45 0 81 65 122 214 103 386 3 750 -254
919 -146 97 -302 131 -522 116z"/>
<path d="M3740 4799 c-281 -25 -495 -184 -586 -435 -73 -199 -68 -429 13 -676
27 -83 66 -138 96 -138 9 0 63 19 122 41 122 48 165 83 190 159 20 60 46 84
92 84 52 0 87 -43 80 -96 -7 -55 -52 -142 -98 -190 -22 -23 -38 -42 -37 -43 2
-2 28 -15 58 -30 76 -38 133 -78 212 -147 36 -32 75 -58 85 -58 10 0 41 11 69
24 79 37 114 101 114 208 0 73 27 108 85 108 25 0 44 -8 60 -25 22 -21 25 -33
25 -101 l0 -77 46 6 c30 3 63 17 98 41 61 42 94 45 132 12 21 -17 28 -33 28
-60 0 -47 -38 -87 -123 -129 -55 -27 -77 -32 -160 -35 -95 -5 -97 -5 -139 -43
-24 -21 -65 -48 -90 -60 -26 -12 -48 -23 -50 -24 -1 -1 11 -31 28 -66 16 -35
30 -74 30 -85 0 -31 -36 -72 -71 -79 -44 -10 -71 13 -119 102 -85 157 -194
263 -357 345 -52 26 -119 52 -148 59 -52 12 -55 11 -126 -25 -108 -55 -193
-119 -289 -217 -143 -145 -235 -320 -282 -534 -20 -87 -20 -126 -19 -1165 2
-1015 3 -1076 20 -1100 21 -29 56 -40 93 -27 56 18 53 -45 58 1136 l5 1096 23
80 c46 158 123 293 231 402 56 57 119 108 126 102 9 -10 -27 -154 -70 -279
-26 -74 -49 -160 -52 -190 -4 -48 -2 -58 18 -77 31 -28 116 -49 256 -64 136
-14 295 0 434 37 115 31 143 31 174 -1 33 -32 33 -78 1 -110 -21 -21 -107 -52
-194 -70 -18 -4 -37 -16 -43 -27 -18 -33 -5 -110 24 -153 15 -22 27 -50 27
-63 0 -34 -52 -82 -88 -82 -65 0 -134 109 -140 221 l-4 66 -127 7 c-69 4 -160
13 -201 20 -85 15 -120 8 -140 -29 -17 -33 -8 -114 23 -204 130 -372 507 -509
989 -361 126 39 298 126 397 200 440 332 666 1074 530 1745 -72 359 -253 660
-499 834 -242 171 -571 265 -840 240z"/>
</g>
</svg>
