<svg xmlns="http://www.w3.org/2000/svg" viewBox="0 0 66 66" id="pressure-meter"><circle cx="33" cy="26.3" r="2.1"></circle><path d="M47.7 25.3h3.6c-.2-4.3-1.9-8.2-4.7-11.2l-2.5 2.5c-.4.4-1 .4-1.4 0-.4-.4-.4-1 0-1.4l2.5-2.5C42.2 9.9 38.3 8.2 34 8v3.6c0 .6-.4 1-1 1s-1-.4-1-1V8c-4.3.2-8.2 1.9-11.2 4.7l2.5 2.5c.4.4.4 1 0 1.4-.4.4-1 .4-1.4 0l-2.5-2.5c-2.7 3-4.4 6.9-4.7 11.2h3.6c.6 0 1 .4 1 1s-.4 1-1 1h-3.6c.2 4.3 1.9 8.2 4.7 11.2l2.5-2.5c.4-.4 1-.4 1.4 0 .4.4.4 1 0 1.4l-2.5 2.5c3 2.7 6.9 4.4 11.2 4.7V41c0-.6.4-1 1-1s1 .4 1 1v3.6c4.3-.2 8.2-1.9 11.2-4.7l-2.5-2.5c-.4-.4-.4-1 0-1.4.4-.4 1-.4 1.4 0l2.5 2.5c2.7-3 4.4-6.9 4.7-11.2h-3.6c-.6 0-1-.4-1-1s.5-1 1-1zm-1-4.2L37 26v.3c0 2.2-1.8 4.1-4.1 4.1-2.2 0-4.1-1.8-4.1-4.1 0-2.2 1.8-4.1 4.1-4.1 1.4 0 2.6.7 3.4 1.8l9.4-4.7c.5-.2 1.1 0 1.3.4.3.6.1 1.2-.3 1.4z"></path><path d="M33 .5C18.8.5 7.2 12 7.2 26.3c0 14.2 11.6 25.8 25.8 25.8 14.3 0 25.8-11.6 25.8-25.8C58.8 12 47.3.5 33 .5zm0 46.1c-11.2 0-20.3-9.1-20.3-20.3C12.7 15.1 21.8 6 33 6c11.2 0 20.3 9.1 20.3 20.3.1 11.2-9 20.3-20.3 20.3zM42.9 52.3V58c0 .5-.5 1-1 1h-1.4v5.5c0 .6-.5 1-1 1h-13c-.6 0-1-.4-1-1V59h-1.4c-.5 0-1-.5-1-1v-5.7c3.1 1.2 6.4 1.8 9.9 1.8s6.8-.6 9.9-1.8z"></path></svg>