<svg xmlns="http://www.w3.org/2000/svg" width="512" height="512" fill-rule="evenodd" clip-rule="evenodd" image-rendering="optimizeQuality" shape-rendering="geometricPrecision" text-rendering="geometricPrecision" viewBox="0 0 512 512" id="dew-point"><path d="M301.96 257.61c-0.63,-1.36 -2.56,-1.36 -3.2,0 -4.45,9.53 -29.34,51.29 -29.34,66.81 0,17.08 13.86,30.94 30.94,30.94 17.09,0 30.94,-13.86 30.94,-30.94 0,-13.69 -24.89,-57.28 -29.34,-66.81zm-84.19 114.88c20.22,13.55 33.55,36.59 33.6,62.76 0.09,42.24 -33.56,75.2 -75.52,75.81 -41.76,0.09 -75.73,-33.83 -75.81,-75.52 -0.05,-26.17 13.19,-49.26 33.36,-62.89l-0.64 -329.45c-0.05,-23.2 18.9,-42.22 42.1,-42.26 23.2,-0.05 42.22,18.9 42.27,42.1l0.64 329.45zm15.93 -122.12l34.96 0c4.48,0 8.14,3.67 8.14,8.15l0 0c0,4.48 -3.66,8.14 -8.14,8.14l-34.96 0c-4.48,0 -8.15,-3.66 -8.15,-8.14l0 0c0,-4.48 3.67,-8.15 8.15,-8.15zm0 -43.67l34.96 0c4.48,0 8.14,3.66 8.14,8.14l0 0c0,4.48 -3.66,8.15 -8.14,8.15l-34.96 0c-4.48,0 -8.15,-3.67 -8.15,-8.15l0 0c0,-4.48 3.67,-8.14 8.15,-8.14zm0 -43.67l34.96 0c4.48,0 8.14,3.66 8.14,8.14l0 0c0,4.48 -3.66,8.15 -8.14,8.15l-34.96 0c-4.48,0 -8.15,-3.67 -8.15,-8.15l0 0c0,-4.48 3.67,-8.14 8.15,-8.14zm0 -43.67l34.96 0c4.48,0 8.14,3.66 8.14,8.14l0 0c0,4.48 -3.66,8.15 -8.14,8.15l-34.96 0c-4.48,0 -8.15,-3.67 -8.15,-8.15l0 0c0,-4.48 3.67,-8.14 8.15,-8.14zm0 -43.68l34.96 0c4.48,0 8.15,3.67 8.15,8.15l0 0c0,4.48 -3.67,8.14 -8.15,8.14l-34.96 0c-4.48,0 -8.15,-3.66 -8.15,-8.14l0 0c0,-4.48 3.67,-8.15 8.15,-8.15zm-46.71 345.23c5.47,3.71 9.08,10.05 9.08,17.24 0,10.89 -8.89,20.7 -19.82,20.7 -11.5,0 -20.91,-8.85 -20.91,-20.7 0,-7.19 3.6,-13.53 9.08,-17.24l0 -272.99c0,-6.3 5.08,-11.47 11.28,-11.47 6.21,0 11.29,5.17 11.29,11.47l0 272.99zm195.64 -251.29c-0.64,-1.37 -2.57,-1.37 -3.21,0 -4.44,9.53 -29.33,51.28 -29.33,66.8 0,17.09 13.85,30.94 30.94,30.94 17.08,0 30.94,-13.85 30.94,-30.94 0,-13.69 -24.9,-57.27 -29.34,-66.8zm-62.85 -85.96c-0.64,-1.37 -2.57,-1.37 -3.2,0 -4.45,9.53 -29.34,51.28 -29.34,66.8 0,17.09 13.85,30.94 30.94,30.94 17.09,0 30.94,-13.85 30.94,-30.94 0,-13.69 -24.89,-57.27 -29.34,-66.8z"></path></svg>