<svg xmlns="http://www.w3.org/2000/svg" width="2000" height="2000" id="weight-scale"><path d="M925.187 1089.722c0 41.32 33.496 74.814 74.814 74.814 41.317 0 74.811-33.494 74.811-74.814 0-35.523-24.768-65.244-57.971-72.888l-16.84-150.411-16.84 150.411c-33.204 7.643-57.974 37.364-57.974 72.888zm581.469-847.889H493.344c-13.807 0-25 11.192-25 25v107.002c0 38.599 28.237 73.438 79.508 98.1 45.451 21.862 105.094 33.902 167.943 33.902h568.409c62.849 0 122.493-12.04 167.943-33.902 51.272-24.662 79.509-59.501 79.509-98.1V266.833c0-13.808-11.192-25-25-25zm-83.404 1099.95c-20.797 34.897-45.874 67.101-74.982 96.209-45.211 45.211-97.877 80.715-156.535 105.525-60.762 25.7-125.27 38.731-191.733 38.731s-130.972-13.031-191.734-38.732c-58.657-24.81-111.323-60.313-156.535-105.524-29.107-29.107-54.184-61.31-74.98-96.205l-87.034 343.554c-4.675 18.459-1.147 37.024 9.68 50.936 10.828 13.912 27.958 21.891 46.998 21.891h907.211c19.041 0 36.172-7.979 46.999-21.891s14.354-32.478 9.679-50.937l-87.034-343.557z"></path><path d="M680.081 769.676c-.021.021-.043.04-.064.062l-.061.064c-41.521 41.537-74.126 89.908-96.908 143.77-23.604 55.806-35.573 115.071-35.573 176.15 0 61.08 11.969 120.347 35.573 176.152 22.793 53.89 55.418 102.282 96.97 143.834 41.551 41.551 89.944 74.176 143.833 96.969 55.806 23.604 115.072 35.572 176.151 35.572s120.345-11.968 176.151-35.572c53.891-22.793 102.281-55.418 143.833-96.969 41.552-41.552 74.177-89.944 96.97-143.834 23.592-55.774 35.559-115.006 35.572-176.051l.002-.102-.002-.102c-.014-61.043-11.98-120.274-35.572-176.049-22.775-53.846-55.369-102.204-96.871-143.733-.035-.033-.064-.069-.099-.103-.034-.034-.069-.064-.104-.099-41.527-41.503-89.884-74.093-143.729-96.868-55.806-23.604-115.071-35.572-176.151-35.572s-120.346 11.969-176.152 35.572c-53.862 22.783-102.232 55.387-143.769 96.909zm319.92-22.726c13.807 0 25-11.193 25-25v-33.982c92.199 5.678 176.102 42.532 241.268 100.127l-23.893 23.895c-9.763 9.764-9.763 25.593 0 35.355 4.882 4.882 11.279 7.322 17.678 7.322s12.795-2.441 17.678-7.322l23.895-23.895c57.596 65.168 94.451 149.07 100.129 241.271h-33.981c-13.808 0-25 11.192-25 25s11.192 25 25 25h33.981c-5.678 92.2-42.533 176.104-100.128 241.271l-23.897-23.895c-9.763-9.762-25.591-9.762-35.354.002-9.764 9.763-9.763 25.593.001 35.355l23.895 23.893c-65.167 57.597-149.069 94.452-241.271 100.13v-33.986c0-13.808-11.193-25-25-25s-25 11.192-25 25v33.986c-92.201-5.678-176.104-42.533-241.271-100.13l23.895-23.893c9.764-9.763 9.764-25.592.002-35.355-9.764-9.764-25.592-9.764-35.356-.002l-23.897 23.895c-57.596-65.167-94.452-149.07-100.128-241.271h33.983c13.807 0 25-11.192 25-25s-11.193-25-25-25h-33.983c5.677-92.201 42.533-176.104 100.13-241.271l23.895 23.895a24.919 24.919 0 0 0 17.677 7.322 24.928 24.928 0 0 0 17.679-7.322c9.763-9.764 9.762-25.593-.001-35.355l-23.894-23.894c65.167-57.595 149.069-94.45 241.27-100.128v33.982c-.002 13.807 11.191 25 24.998 25zm89.499-141.656v-59.457H910.504v59.457c29.314-5.381 59.202-8.098 89.498-8.098s60.184 2.717 89.498 8.098z"></path></svg>